<svg height="48" viewBox="0 0 48 48" width="48" xmlns="http://www.w3.org/2000/svg" fill="#03A688"><path d="m0 0h48v48h-48z" fill="none"/><path d="m45.3 22.1c-2.1-2.6-9.9-11.1-21.3-11.1a23 23 0 0 0 -8.5 1.6l-5.8-5.7a2 2 0 0 0 -2.8 2.8l31.4 31.4a2 2 0 1 0 2.8-2.8l-4.7-4.8a32.1 32.1 0 0 0 8.9-7.6 3 3 0 0 0 0-3.8zm-11.9 8.5-4-4a5.8 5.8 0 0 0 .6-2.6 6 6 0 0 0 -6-6 5.8 5.8 0 0 0 -2.6.6l-2.8-2.8a19.1 19.1 0 0 1 5.4-.8c8.8 0 15.3 6.2 17.7 9a29.7 29.7 0 0 1 -8.3 6.6z"/><path d="m10.4 17.6a2 2 0 0 0 -2.8 2.8l15 15a2 2 0 0 0 2.8-2.8z"/><path d="m5.4 22.6a1.9 1.9 0 0 0 -2.8 0 1.9 1.9 0 0 0 0 2.8l7 7a2 2 0 0 0 2.8-2.8z"/></svg>